%TF.GenerationSoftware,KiCad,Pcbnew,9.0.2*%
%TF.CreationDate,2025-07-26T16:17:08-04:00*%
%TF.ProjectId,Automated Coin Machine,4175746f-6d61-4746-9564-20436f696e20,rev?*%
%TF.SameCoordinates,Original*%
%TF.FileFunction,Legend,Top*%
%TF.FilePolarity,Positive*%
%FSLAX46Y46*%
G04 Gerber Fmt 4.6, Leading zero omitted, Abs format (unit mm)*
G04 Created by KiCad (PCBNEW 9.0.2) date 2025-07-26 16:17:08*
%MOMM*%
%LPD*%
G01*
G04 APERTURE LIST*
%ADD10C,0.150000*%
%ADD11C,0.100000*%
%ADD12C,0.127000*%
%ADD13C,0.200000*%
%ADD14C,0.152400*%
G04 APERTURE END LIST*
D10*
X110073333Y-63862295D02*
X109859999Y-63481342D01*
X109707618Y-63862295D02*
X109707618Y-63062295D01*
X109707618Y-63062295D02*
X109951428Y-63062295D01*
X109951428Y-63062295D02*
X110012380Y-63100390D01*
X110012380Y-63100390D02*
X110042857Y-63138485D01*
X110042857Y-63138485D02*
X110073333Y-63214676D01*
X110073333Y-63214676D02*
X110073333Y-63328961D01*
X110073333Y-63328961D02*
X110042857Y-63405152D01*
X110042857Y-63405152D02*
X110012380Y-63443247D01*
X110012380Y-63443247D02*
X109951428Y-63481342D01*
X109951428Y-63481342D02*
X109707618Y-63481342D01*
X110682857Y-63862295D02*
X110317142Y-63862295D01*
X110499999Y-63862295D02*
X110499999Y-63062295D01*
X110499999Y-63062295D02*
X110439047Y-63176580D01*
X110439047Y-63176580D02*
X110378095Y-63252771D01*
X110378095Y-63252771D02*
X110317142Y-63290866D01*
X94112295Y-44554285D02*
X93731342Y-44767619D01*
X94112295Y-44920000D02*
X93312295Y-44920000D01*
X93312295Y-44920000D02*
X93312295Y-44676190D01*
X93312295Y-44676190D02*
X93350390Y-44615238D01*
X93350390Y-44615238D02*
X93388485Y-44584761D01*
X93388485Y-44584761D02*
X93464676Y-44554285D01*
X93464676Y-44554285D02*
X93578961Y-44554285D01*
X93578961Y-44554285D02*
X93655152Y-44584761D01*
X93655152Y-44584761D02*
X93693247Y-44615238D01*
X93693247Y-44615238D02*
X93731342Y-44676190D01*
X93731342Y-44676190D02*
X93731342Y-44920000D01*
X94188485Y-44432381D02*
X94188485Y-43944761D01*
X93693247Y-43579047D02*
X93731342Y-43487619D01*
X93731342Y-43487619D02*
X93769438Y-43457142D01*
X93769438Y-43457142D02*
X93845628Y-43426666D01*
X93845628Y-43426666D02*
X93959914Y-43426666D01*
X93959914Y-43426666D02*
X94036104Y-43457142D01*
X94036104Y-43457142D02*
X94074200Y-43487619D01*
X94074200Y-43487619D02*
X94112295Y-43548571D01*
X94112295Y-43548571D02*
X94112295Y-43792381D01*
X94112295Y-43792381D02*
X93312295Y-43792381D01*
X93312295Y-43792381D02*
X93312295Y-43579047D01*
X93312295Y-43579047D02*
X93350390Y-43518095D01*
X93350390Y-43518095D02*
X93388485Y-43487619D01*
X93388485Y-43487619D02*
X93464676Y-43457142D01*
X93464676Y-43457142D02*
X93540866Y-43457142D01*
X93540866Y-43457142D02*
X93617057Y-43487619D01*
X93617057Y-43487619D02*
X93655152Y-43518095D01*
X93655152Y-43518095D02*
X93693247Y-43579047D01*
X93693247Y-43579047D02*
X93693247Y-43792381D01*
X94112295Y-42847619D02*
X94112295Y-43152381D01*
X94112295Y-43152381D02*
X93312295Y-43152381D01*
X93312295Y-42634286D02*
X93959914Y-42634286D01*
X93959914Y-42634286D02*
X94036104Y-42603809D01*
X94036104Y-42603809D02*
X94074200Y-42573333D01*
X94074200Y-42573333D02*
X94112295Y-42512381D01*
X94112295Y-42512381D02*
X94112295Y-42390476D01*
X94112295Y-42390476D02*
X94074200Y-42329524D01*
X94074200Y-42329524D02*
X94036104Y-42299047D01*
X94036104Y-42299047D02*
X93959914Y-42268571D01*
X93959914Y-42268571D02*
X93312295Y-42268571D01*
X93693247Y-41963810D02*
X93693247Y-41750476D01*
X94112295Y-41659048D02*
X94112295Y-41963810D01*
X94112295Y-41963810D02*
X93312295Y-41963810D01*
X93312295Y-41963810D02*
X93312295Y-41659048D01*
X94112295Y-41049523D02*
X94112295Y-41415238D01*
X94112295Y-41232381D02*
X93312295Y-41232381D01*
X93312295Y-41232381D02*
X93426580Y-41293333D01*
X93426580Y-41293333D02*
X93502771Y-41354285D01*
X93502771Y-41354285D02*
X93540866Y-41415238D01*
X117899795Y-99532932D02*
X118471223Y-99532932D01*
X118471223Y-99532932D02*
X118585509Y-99563409D01*
X118585509Y-99563409D02*
X118661700Y-99624361D01*
X118661700Y-99624361D02*
X118699795Y-99715790D01*
X118699795Y-99715790D02*
X118699795Y-99776742D01*
X117899795Y-98923409D02*
X117899795Y-99228171D01*
X117899795Y-99228171D02*
X118280747Y-99258647D01*
X118280747Y-99258647D02*
X118242652Y-99228171D01*
X118242652Y-99228171D02*
X118204557Y-99167218D01*
X118204557Y-99167218D02*
X118204557Y-99014837D01*
X118204557Y-99014837D02*
X118242652Y-98953885D01*
X118242652Y-98953885D02*
X118280747Y-98923409D01*
X118280747Y-98923409D02*
X118356938Y-98892932D01*
X118356938Y-98892932D02*
X118547414Y-98892932D01*
X118547414Y-98892932D02*
X118623604Y-98923409D01*
X118623604Y-98923409D02*
X118661700Y-98953885D01*
X118661700Y-98953885D02*
X118699795Y-99014837D01*
X118699795Y-99014837D02*
X118699795Y-99167218D01*
X118699795Y-99167218D02*
X118661700Y-99228171D01*
X118661700Y-99228171D02*
X118623604Y-99258647D01*
X35328266Y-36392295D02*
X35328266Y-36963723D01*
X35328266Y-36963723D02*
X35280647Y-37078009D01*
X35280647Y-37078009D02*
X35185409Y-37154200D01*
X35185409Y-37154200D02*
X35042552Y-37192295D01*
X35042552Y-37192295D02*
X34947314Y-37192295D01*
X36328266Y-37192295D02*
X35756838Y-37192295D01*
X36042552Y-37192295D02*
X36042552Y-36392295D01*
X36042552Y-36392295D02*
X35947314Y-36506580D01*
X35947314Y-36506580D02*
X35852076Y-36582771D01*
X35852076Y-36582771D02*
X35756838Y-36620866D01*
X37278180Y-37554819D02*
X36801990Y-37554819D01*
X36801990Y-37554819D02*
X36754371Y-38031009D01*
X36754371Y-38031009D02*
X36801990Y-37983390D01*
X36801990Y-37983390D02*
X36897228Y-37935771D01*
X36897228Y-37935771D02*
X37135323Y-37935771D01*
X37135323Y-37935771D02*
X37230561Y-37983390D01*
X37230561Y-37983390D02*
X37278180Y-38031009D01*
X37278180Y-38031009D02*
X37325799Y-38126247D01*
X37325799Y-38126247D02*
X37325799Y-38364342D01*
X37325799Y-38364342D02*
X37278180Y-38459580D01*
X37278180Y-38459580D02*
X37230561Y-38507200D01*
X37230561Y-38507200D02*
X37135323Y-38554819D01*
X37135323Y-38554819D02*
X36897228Y-38554819D01*
X36897228Y-38554819D02*
X36801990Y-38507200D01*
X36801990Y-38507200D02*
X36754371Y-38459580D01*
X37944847Y-37554819D02*
X38040085Y-37554819D01*
X38040085Y-37554819D02*
X38135323Y-37602438D01*
X38135323Y-37602438D02*
X38182942Y-37650057D01*
X38182942Y-37650057D02*
X38230561Y-37745295D01*
X38230561Y-37745295D02*
X38278180Y-37935771D01*
X38278180Y-37935771D02*
X38278180Y-38173866D01*
X38278180Y-38173866D02*
X38230561Y-38364342D01*
X38230561Y-38364342D02*
X38182942Y-38459580D01*
X38182942Y-38459580D02*
X38135323Y-38507200D01*
X38135323Y-38507200D02*
X38040085Y-38554819D01*
X38040085Y-38554819D02*
X37944847Y-38554819D01*
X37944847Y-38554819D02*
X37849609Y-38507200D01*
X37849609Y-38507200D02*
X37801990Y-38459580D01*
X37801990Y-38459580D02*
X37754371Y-38364342D01*
X37754371Y-38364342D02*
X37706752Y-38173866D01*
X37706752Y-38173866D02*
X37706752Y-37935771D01*
X37706752Y-37935771D02*
X37754371Y-37745295D01*
X37754371Y-37745295D02*
X37801990Y-37650057D01*
X37801990Y-37650057D02*
X37849609Y-37602438D01*
X37849609Y-37602438D02*
X37944847Y-37554819D01*
X39182942Y-37554819D02*
X38706752Y-37554819D01*
X38706752Y-37554819D02*
X38659133Y-38031009D01*
X38659133Y-38031009D02*
X38706752Y-37983390D01*
X38706752Y-37983390D02*
X38801990Y-37935771D01*
X38801990Y-37935771D02*
X39040085Y-37935771D01*
X39040085Y-37935771D02*
X39135323Y-37983390D01*
X39135323Y-37983390D02*
X39182942Y-38031009D01*
X39182942Y-38031009D02*
X39230561Y-38126247D01*
X39230561Y-38126247D02*
X39230561Y-38364342D01*
X39230561Y-38364342D02*
X39182942Y-38459580D01*
X39182942Y-38459580D02*
X39135323Y-38507200D01*
X39135323Y-38507200D02*
X39040085Y-38554819D01*
X39040085Y-38554819D02*
X38801990Y-38554819D01*
X38801990Y-38554819D02*
X38706752Y-38507200D01*
X38706752Y-38507200D02*
X38659133Y-38459580D01*
X40182942Y-38554819D02*
X39611514Y-38554819D01*
X39897228Y-38554819D02*
X39897228Y-37554819D01*
X39897228Y-37554819D02*
X39801990Y-37697676D01*
X39801990Y-37697676D02*
X39706752Y-37792914D01*
X39706752Y-37792914D02*
X39611514Y-37840533D01*
X41135323Y-38554819D02*
X40563895Y-38554819D01*
X40849609Y-38554819D02*
X40849609Y-37554819D01*
X40849609Y-37554819D02*
X40754371Y-37697676D01*
X40754371Y-37697676D02*
X40659133Y-37792914D01*
X40659133Y-37792914D02*
X40563895Y-37840533D01*
X41754371Y-37554819D02*
X41849609Y-37554819D01*
X41849609Y-37554819D02*
X41944847Y-37602438D01*
X41944847Y-37602438D02*
X41992466Y-37650057D01*
X41992466Y-37650057D02*
X42040085Y-37745295D01*
X42040085Y-37745295D02*
X42087704Y-37935771D01*
X42087704Y-37935771D02*
X42087704Y-38173866D01*
X42087704Y-38173866D02*
X42040085Y-38364342D01*
X42040085Y-38364342D02*
X41992466Y-38459580D01*
X41992466Y-38459580D02*
X41944847Y-38507200D01*
X41944847Y-38507200D02*
X41849609Y-38554819D01*
X41849609Y-38554819D02*
X41754371Y-38554819D01*
X41754371Y-38554819D02*
X41659133Y-38507200D01*
X41659133Y-38507200D02*
X41611514Y-38459580D01*
X41611514Y-38459580D02*
X41563895Y-38364342D01*
X41563895Y-38364342D02*
X41516276Y-38173866D01*
X41516276Y-38173866D02*
X41516276Y-37935771D01*
X41516276Y-37935771D02*
X41563895Y-37745295D01*
X41563895Y-37745295D02*
X41611514Y-37650057D01*
X41611514Y-37650057D02*
X41659133Y-37602438D01*
X41659133Y-37602438D02*
X41754371Y-37554819D01*
X42468657Y-37650057D02*
X42516276Y-37602438D01*
X42516276Y-37602438D02*
X42611514Y-37554819D01*
X42611514Y-37554819D02*
X42849609Y-37554819D01*
X42849609Y-37554819D02*
X42944847Y-37602438D01*
X42944847Y-37602438D02*
X42992466Y-37650057D01*
X42992466Y-37650057D02*
X43040085Y-37745295D01*
X43040085Y-37745295D02*
X43040085Y-37840533D01*
X43040085Y-37840533D02*
X42992466Y-37983390D01*
X42992466Y-37983390D02*
X42421038Y-38554819D01*
X42421038Y-38554819D02*
X43040085Y-38554819D01*
X43897228Y-37888152D02*
X43897228Y-38554819D01*
X43659133Y-37507200D02*
X43421038Y-38221485D01*
X43421038Y-38221485D02*
X44040085Y-38221485D01*
X44468657Y-38554819D02*
X44659133Y-38554819D01*
X44659133Y-38554819D02*
X44754371Y-38507200D01*
X44754371Y-38507200D02*
X44801990Y-38459580D01*
X44801990Y-38459580D02*
X44897228Y-38316723D01*
X44897228Y-38316723D02*
X44944847Y-38126247D01*
X44944847Y-38126247D02*
X44944847Y-37745295D01*
X44944847Y-37745295D02*
X44897228Y-37650057D01*
X44897228Y-37650057D02*
X44849609Y-37602438D01*
X44849609Y-37602438D02*
X44754371Y-37554819D01*
X44754371Y-37554819D02*
X44563895Y-37554819D01*
X44563895Y-37554819D02*
X44468657Y-37602438D01*
X44468657Y-37602438D02*
X44421038Y-37650057D01*
X44421038Y-37650057D02*
X44373419Y-37745295D01*
X44373419Y-37745295D02*
X44373419Y-37983390D01*
X44373419Y-37983390D02*
X44421038Y-38078628D01*
X44421038Y-38078628D02*
X44468657Y-38126247D01*
X44468657Y-38126247D02*
X44563895Y-38173866D01*
X44563895Y-38173866D02*
X44754371Y-38173866D01*
X44754371Y-38173866D02*
X44849609Y-38126247D01*
X44849609Y-38126247D02*
X44897228Y-38078628D01*
X44897228Y-38078628D02*
X44944847Y-37983390D01*
X45897228Y-38554819D02*
X45325800Y-38554819D01*
X45611514Y-38554819D02*
X45611514Y-37554819D01*
X45611514Y-37554819D02*
X45516276Y-37697676D01*
X45516276Y-37697676D02*
X45421038Y-37792914D01*
X45421038Y-37792914D02*
X45325800Y-37840533D01*
X68111666Y-117823895D02*
X68159285Y-117785800D01*
X68159285Y-117785800D02*
X68302142Y-117747704D01*
X68302142Y-117747704D02*
X68397380Y-117747704D01*
X68397380Y-117747704D02*
X68540237Y-117785800D01*
X68540237Y-117785800D02*
X68635475Y-117861990D01*
X68635475Y-117861990D02*
X68683094Y-117938180D01*
X68683094Y-117938180D02*
X68730713Y-118090561D01*
X68730713Y-118090561D02*
X68730713Y-118204847D01*
X68730713Y-118204847D02*
X68683094Y-118357228D01*
X68683094Y-118357228D02*
X68635475Y-118433419D01*
X68635475Y-118433419D02*
X68540237Y-118509609D01*
X68540237Y-118509609D02*
X68397380Y-118547704D01*
X68397380Y-118547704D02*
X68302142Y-118547704D01*
X68302142Y-118547704D02*
X68159285Y-118509609D01*
X68159285Y-118509609D02*
X68111666Y-118471514D01*
X67159285Y-117747704D02*
X67730713Y-117747704D01*
X67444999Y-117747704D02*
X67444999Y-118547704D01*
X67444999Y-118547704D02*
X67540237Y-118433419D01*
X67540237Y-118433419D02*
X67635475Y-118357228D01*
X67635475Y-118357228D02*
X67730713Y-118319133D01*
X71310595Y-102749795D02*
X71310595Y-103397414D01*
X71310595Y-103397414D02*
X71358214Y-103473604D01*
X71358214Y-103473604D02*
X71405833Y-103511700D01*
X71405833Y-103511700D02*
X71501071Y-103549795D01*
X71501071Y-103549795D02*
X71691547Y-103549795D01*
X71691547Y-103549795D02*
X71786785Y-103511700D01*
X71786785Y-103511700D02*
X71834404Y-103473604D01*
X71834404Y-103473604D02*
X71882023Y-103397414D01*
X71882023Y-103397414D02*
X71882023Y-102749795D01*
X72882023Y-103549795D02*
X72310595Y-103549795D01*
X72596309Y-103549795D02*
X72596309Y-102749795D01*
X72596309Y-102749795D02*
X72501071Y-102864080D01*
X72501071Y-102864080D02*
X72405833Y-102940271D01*
X72405833Y-102940271D02*
X72310595Y-102978366D01*
X88112295Y-44029999D02*
X87731342Y-44243333D01*
X88112295Y-44395714D02*
X87312295Y-44395714D01*
X87312295Y-44395714D02*
X87312295Y-44151904D01*
X87312295Y-44151904D02*
X87350390Y-44090952D01*
X87350390Y-44090952D02*
X87388485Y-44060475D01*
X87388485Y-44060475D02*
X87464676Y-44029999D01*
X87464676Y-44029999D02*
X87578961Y-44029999D01*
X87578961Y-44029999D02*
X87655152Y-44060475D01*
X87655152Y-44060475D02*
X87693247Y-44090952D01*
X87693247Y-44090952D02*
X87731342Y-44151904D01*
X87731342Y-44151904D02*
X87731342Y-44395714D01*
X88188485Y-43908095D02*
X88188485Y-43420475D01*
X88112295Y-42902380D02*
X87731342Y-43115714D01*
X88112295Y-43268095D02*
X87312295Y-43268095D01*
X87312295Y-43268095D02*
X87312295Y-43024285D01*
X87312295Y-43024285D02*
X87350390Y-42963333D01*
X87350390Y-42963333D02*
X87388485Y-42932856D01*
X87388485Y-42932856D02*
X87464676Y-42902380D01*
X87464676Y-42902380D02*
X87578961Y-42902380D01*
X87578961Y-42902380D02*
X87655152Y-42932856D01*
X87655152Y-42932856D02*
X87693247Y-42963333D01*
X87693247Y-42963333D02*
X87731342Y-43024285D01*
X87731342Y-43024285D02*
X87731342Y-43268095D01*
X87693247Y-42628095D02*
X87693247Y-42414761D01*
X88112295Y-42323333D02*
X88112295Y-42628095D01*
X88112295Y-42628095D02*
X87312295Y-42628095D01*
X87312295Y-42628095D02*
X87312295Y-42323333D01*
X88112295Y-42049047D02*
X87312295Y-42049047D01*
X87312295Y-42049047D02*
X87312295Y-41896666D01*
X87312295Y-41896666D02*
X87350390Y-41805237D01*
X87350390Y-41805237D02*
X87426580Y-41744285D01*
X87426580Y-41744285D02*
X87502771Y-41713808D01*
X87502771Y-41713808D02*
X87655152Y-41683332D01*
X87655152Y-41683332D02*
X87769438Y-41683332D01*
X87769438Y-41683332D02*
X87921819Y-41713808D01*
X87921819Y-41713808D02*
X87998009Y-41744285D01*
X87998009Y-41744285D02*
X88074200Y-41805237D01*
X88074200Y-41805237D02*
X88112295Y-41896666D01*
X88112295Y-41896666D02*
X88112295Y-42049047D01*
X88112295Y-41073808D02*
X88112295Y-41439523D01*
X88112295Y-41256666D02*
X87312295Y-41256666D01*
X87312295Y-41256666D02*
X87426580Y-41317618D01*
X87426580Y-41317618D02*
X87502771Y-41378570D01*
X87502771Y-41378570D02*
X87540866Y-41439523D01*
X118027295Y-57064960D02*
X118598723Y-57064960D01*
X118598723Y-57064960D02*
X118713009Y-57109955D01*
X118713009Y-57109955D02*
X118789200Y-57199943D01*
X118789200Y-57199943D02*
X118827295Y-57334927D01*
X118827295Y-57334927D02*
X118827295Y-57424915D01*
X118103485Y-56660011D02*
X118065390Y-56615017D01*
X118065390Y-56615017D02*
X118027295Y-56525028D01*
X118027295Y-56525028D02*
X118027295Y-56300056D01*
X118027295Y-56300056D02*
X118065390Y-56210067D01*
X118065390Y-56210067D02*
X118103485Y-56165073D01*
X118103485Y-56165073D02*
X118179676Y-56120078D01*
X118179676Y-56120078D02*
X118255866Y-56120078D01*
X118255866Y-56120078D02*
X118370152Y-56165073D01*
X118370152Y-56165073D02*
X118827295Y-56705005D01*
X118827295Y-56705005D02*
X118827295Y-56120078D01*
X118149795Y-85562932D02*
X118721223Y-85562932D01*
X118721223Y-85562932D02*
X118835509Y-85593409D01*
X118835509Y-85593409D02*
X118911700Y-85654361D01*
X118911700Y-85654361D02*
X118949795Y-85745790D01*
X118949795Y-85745790D02*
X118949795Y-85806742D01*
X118149795Y-85319123D02*
X118149795Y-84922932D01*
X118149795Y-84922932D02*
X118454557Y-85136266D01*
X118454557Y-85136266D02*
X118454557Y-85044837D01*
X118454557Y-85044837D02*
X118492652Y-84983885D01*
X118492652Y-84983885D02*
X118530747Y-84953409D01*
X118530747Y-84953409D02*
X118606938Y-84922932D01*
X118606938Y-84922932D02*
X118797414Y-84922932D01*
X118797414Y-84922932D02*
X118873604Y-84953409D01*
X118873604Y-84953409D02*
X118911700Y-84983885D01*
X118911700Y-84983885D02*
X118949795Y-85044837D01*
X118949795Y-85044837D02*
X118949795Y-85227694D01*
X118949795Y-85227694D02*
X118911700Y-85288647D01*
X118911700Y-85288647D02*
X118873604Y-85319123D01*
X108362295Y-40106666D02*
X107981342Y-40320000D01*
X108362295Y-40472381D02*
X107562295Y-40472381D01*
X107562295Y-40472381D02*
X107562295Y-40228571D01*
X107562295Y-40228571D02*
X107600390Y-40167619D01*
X107600390Y-40167619D02*
X107638485Y-40137142D01*
X107638485Y-40137142D02*
X107714676Y-40106666D01*
X107714676Y-40106666D02*
X107828961Y-40106666D01*
X107828961Y-40106666D02*
X107905152Y-40137142D01*
X107905152Y-40137142D02*
X107943247Y-40167619D01*
X107943247Y-40167619D02*
X107981342Y-40228571D01*
X107981342Y-40228571D02*
X107981342Y-40472381D01*
X107638485Y-39862857D02*
X107600390Y-39832381D01*
X107600390Y-39832381D02*
X107562295Y-39771428D01*
X107562295Y-39771428D02*
X107562295Y-39619047D01*
X107562295Y-39619047D02*
X107600390Y-39558095D01*
X107600390Y-39558095D02*
X107638485Y-39527619D01*
X107638485Y-39527619D02*
X107714676Y-39497142D01*
X107714676Y-39497142D02*
X107790866Y-39497142D01*
X107790866Y-39497142D02*
X107905152Y-39527619D01*
X107905152Y-39527619D02*
X108362295Y-39893333D01*
X108362295Y-39893333D02*
X108362295Y-39497142D01*
X83185039Y-33312295D02*
X83185039Y-33883723D01*
X83185039Y-33883723D02*
X83140044Y-33998009D01*
X83140044Y-33998009D02*
X83050056Y-34074200D01*
X83050056Y-34074200D02*
X82915072Y-34112295D01*
X82915072Y-34112295D02*
X82825084Y-34112295D01*
X84039932Y-33578961D02*
X84039932Y-34112295D01*
X83814960Y-33274200D02*
X83589988Y-33845628D01*
X83589988Y-33845628D02*
X84174915Y-33845628D01*
X91112295Y-45404761D02*
X90731342Y-45618095D01*
X91112295Y-45770476D02*
X90312295Y-45770476D01*
X90312295Y-45770476D02*
X90312295Y-45526666D01*
X90312295Y-45526666D02*
X90350390Y-45465714D01*
X90350390Y-45465714D02*
X90388485Y-45435237D01*
X90388485Y-45435237D02*
X90464676Y-45404761D01*
X90464676Y-45404761D02*
X90578961Y-45404761D01*
X90578961Y-45404761D02*
X90655152Y-45435237D01*
X90655152Y-45435237D02*
X90693247Y-45465714D01*
X90693247Y-45465714D02*
X90731342Y-45526666D01*
X90731342Y-45526666D02*
X90731342Y-45770476D01*
X91188485Y-45282857D02*
X91188485Y-44795237D01*
X90350390Y-44307618D02*
X90312295Y-44368571D01*
X90312295Y-44368571D02*
X90312295Y-44459999D01*
X90312295Y-44459999D02*
X90350390Y-44551428D01*
X90350390Y-44551428D02*
X90426580Y-44612380D01*
X90426580Y-44612380D02*
X90502771Y-44642857D01*
X90502771Y-44642857D02*
X90655152Y-44673333D01*
X90655152Y-44673333D02*
X90769438Y-44673333D01*
X90769438Y-44673333D02*
X90921819Y-44642857D01*
X90921819Y-44642857D02*
X90998009Y-44612380D01*
X90998009Y-44612380D02*
X91074200Y-44551428D01*
X91074200Y-44551428D02*
X91112295Y-44459999D01*
X91112295Y-44459999D02*
X91112295Y-44399047D01*
X91112295Y-44399047D02*
X91074200Y-44307618D01*
X91074200Y-44307618D02*
X91036104Y-44277142D01*
X91036104Y-44277142D02*
X90769438Y-44277142D01*
X90769438Y-44277142D02*
X90769438Y-44399047D01*
X91112295Y-43637142D02*
X90731342Y-43850476D01*
X91112295Y-44002857D02*
X90312295Y-44002857D01*
X90312295Y-44002857D02*
X90312295Y-43759047D01*
X90312295Y-43759047D02*
X90350390Y-43698095D01*
X90350390Y-43698095D02*
X90388485Y-43667618D01*
X90388485Y-43667618D02*
X90464676Y-43637142D01*
X90464676Y-43637142D02*
X90578961Y-43637142D01*
X90578961Y-43637142D02*
X90655152Y-43667618D01*
X90655152Y-43667618D02*
X90693247Y-43698095D01*
X90693247Y-43698095D02*
X90731342Y-43759047D01*
X90731342Y-43759047D02*
X90731342Y-44002857D01*
X90693247Y-43362857D02*
X90693247Y-43149523D01*
X91112295Y-43058095D02*
X91112295Y-43362857D01*
X91112295Y-43362857D02*
X90312295Y-43362857D01*
X90312295Y-43362857D02*
X90312295Y-43058095D01*
X90693247Y-42783809D02*
X90693247Y-42570475D01*
X91112295Y-42479047D02*
X91112295Y-42783809D01*
X91112295Y-42783809D02*
X90312295Y-42783809D01*
X90312295Y-42783809D02*
X90312295Y-42479047D01*
X91112295Y-42204761D02*
X90312295Y-42204761D01*
X90312295Y-42204761D02*
X91112295Y-41839046D01*
X91112295Y-41839046D02*
X90312295Y-41839046D01*
X91112295Y-41199046D02*
X91112295Y-41564761D01*
X91112295Y-41381904D02*
X90312295Y-41381904D01*
X90312295Y-41381904D02*
X90426580Y-41442856D01*
X90426580Y-41442856D02*
X90502771Y-41503808D01*
X90502771Y-41503808D02*
X90540866Y-41564761D01*
X51330399Y-114127350D02*
X51330399Y-113327350D01*
X51330399Y-113327350D02*
X51712128Y-113327350D01*
X51712128Y-113327350D02*
X51807561Y-113365445D01*
X51807561Y-113365445D02*
X51855277Y-113403540D01*
X51855277Y-113403540D02*
X51902993Y-113479731D01*
X51902993Y-113479731D02*
X51902993Y-113594016D01*
X51902993Y-113594016D02*
X51855277Y-113670207D01*
X51855277Y-113670207D02*
X51807561Y-113708302D01*
X51807561Y-113708302D02*
X51712128Y-113746397D01*
X51712128Y-113746397D02*
X51330399Y-113746397D01*
X52857316Y-114127350D02*
X52284722Y-114127350D01*
X52571019Y-114127350D02*
X52571019Y-113327350D01*
X52571019Y-113327350D02*
X52475587Y-113441635D01*
X52475587Y-113441635D02*
X52380154Y-113517826D01*
X52380154Y-113517826D02*
X52284722Y-113555921D01*
X119935039Y-31062295D02*
X119935039Y-31633723D01*
X119935039Y-31633723D02*
X119890044Y-31748009D01*
X119890044Y-31748009D02*
X119800056Y-31824200D01*
X119800056Y-31824200D02*
X119665072Y-31862295D01*
X119665072Y-31862295D02*
X119575084Y-31862295D01*
X120789932Y-31062295D02*
X120609954Y-31062295D01*
X120609954Y-31062295D02*
X120519966Y-31100390D01*
X120519966Y-31100390D02*
X120474971Y-31138485D01*
X120474971Y-31138485D02*
X120384982Y-31252771D01*
X120384982Y-31252771D02*
X120339988Y-31405152D01*
X120339988Y-31405152D02*
X120339988Y-31709914D01*
X120339988Y-31709914D02*
X120384982Y-31786104D01*
X120384982Y-31786104D02*
X120429977Y-31824200D01*
X120429977Y-31824200D02*
X120519966Y-31862295D01*
X120519966Y-31862295D02*
X120699943Y-31862295D01*
X120699943Y-31862295D02*
X120789932Y-31824200D01*
X120789932Y-31824200D02*
X120834926Y-31786104D01*
X120834926Y-31786104D02*
X120879921Y-31709914D01*
X120879921Y-31709914D02*
X120879921Y-31519438D01*
X120879921Y-31519438D02*
X120834926Y-31443247D01*
X120834926Y-31443247D02*
X120789932Y-31405152D01*
X120789932Y-31405152D02*
X120699943Y-31367057D01*
X120699943Y-31367057D02*
X120519966Y-31367057D01*
X120519966Y-31367057D02*
X120429977Y-31405152D01*
X120429977Y-31405152D02*
X120384982Y-31443247D01*
X120384982Y-31443247D02*
X120339988Y-31519438D01*
D11*
X80778884Y-106326419D02*
X80778884Y-105326419D01*
X81255074Y-106326419D02*
X81255074Y-105326419D01*
X81255074Y-105326419D02*
X81826502Y-106326419D01*
X81826502Y-106326419D02*
X81826502Y-105326419D01*
X82302693Y-105945466D02*
X83064598Y-105945466D01*
X82683645Y-106326419D02*
X82683645Y-105564514D01*
X118969360Y-118326419D02*
X119159836Y-118326419D01*
X119159836Y-118326419D02*
X119255074Y-118374038D01*
X119255074Y-118374038D02*
X119350312Y-118469276D01*
X119350312Y-118469276D02*
X119397931Y-118659752D01*
X119397931Y-118659752D02*
X119397931Y-118993085D01*
X119397931Y-118993085D02*
X119350312Y-119183561D01*
X119350312Y-119183561D02*
X119255074Y-119278800D01*
X119255074Y-119278800D02*
X119159836Y-119326419D01*
X119159836Y-119326419D02*
X118969360Y-119326419D01*
X118969360Y-119326419D02*
X118874122Y-119278800D01*
X118874122Y-119278800D02*
X118778884Y-119183561D01*
X118778884Y-119183561D02*
X118731265Y-118993085D01*
X118731265Y-118993085D02*
X118731265Y-118659752D01*
X118731265Y-118659752D02*
X118778884Y-118469276D01*
X118778884Y-118469276D02*
X118874122Y-118374038D01*
X118874122Y-118374038D02*
X118969360Y-118326419D01*
X119826503Y-118326419D02*
X119826503Y-119135942D01*
X119826503Y-119135942D02*
X119874122Y-119231180D01*
X119874122Y-119231180D02*
X119921741Y-119278800D01*
X119921741Y-119278800D02*
X120016979Y-119326419D01*
X120016979Y-119326419D02*
X120207455Y-119326419D01*
X120207455Y-119326419D02*
X120302693Y-119278800D01*
X120302693Y-119278800D02*
X120350312Y-119231180D01*
X120350312Y-119231180D02*
X120397931Y-119135942D01*
X120397931Y-119135942D02*
X120397931Y-118326419D01*
X120731265Y-118326419D02*
X121302693Y-118326419D01*
X121016979Y-119326419D02*
X121016979Y-118326419D01*
X121636027Y-118945466D02*
X122397932Y-118945466D01*
X80778884Y-119326419D02*
X80778884Y-118326419D01*
X81255074Y-119326419D02*
X81255074Y-118326419D01*
X81255074Y-118326419D02*
X81826502Y-119326419D01*
X81826502Y-119326419D02*
X81826502Y-118326419D01*
X82302693Y-118945466D02*
X83064598Y-118945466D01*
X118969360Y-105326419D02*
X119159836Y-105326419D01*
X119159836Y-105326419D02*
X119255074Y-105374038D01*
X119255074Y-105374038D02*
X119350312Y-105469276D01*
X119350312Y-105469276D02*
X119397931Y-105659752D01*
X119397931Y-105659752D02*
X119397931Y-105993085D01*
X119397931Y-105993085D02*
X119350312Y-106183561D01*
X119350312Y-106183561D02*
X119255074Y-106278800D01*
X119255074Y-106278800D02*
X119159836Y-106326419D01*
X119159836Y-106326419D02*
X118969360Y-106326419D01*
X118969360Y-106326419D02*
X118874122Y-106278800D01*
X118874122Y-106278800D02*
X118778884Y-106183561D01*
X118778884Y-106183561D02*
X118731265Y-105993085D01*
X118731265Y-105993085D02*
X118731265Y-105659752D01*
X118731265Y-105659752D02*
X118778884Y-105469276D01*
X118778884Y-105469276D02*
X118874122Y-105374038D01*
X118874122Y-105374038D02*
X118969360Y-105326419D01*
X119826503Y-105326419D02*
X119826503Y-106135942D01*
X119826503Y-106135942D02*
X119874122Y-106231180D01*
X119874122Y-106231180D02*
X119921741Y-106278800D01*
X119921741Y-106278800D02*
X120016979Y-106326419D01*
X120016979Y-106326419D02*
X120207455Y-106326419D01*
X120207455Y-106326419D02*
X120302693Y-106278800D01*
X120302693Y-106278800D02*
X120350312Y-106231180D01*
X120350312Y-106231180D02*
X120397931Y-106135942D01*
X120397931Y-106135942D02*
X120397931Y-105326419D01*
X120731265Y-105326419D02*
X121302693Y-105326419D01*
X121016979Y-106326419D02*
X121016979Y-105326419D01*
X121636027Y-105945466D02*
X122397932Y-105945466D01*
X122016979Y-106326419D02*
X122016979Y-105564514D01*
D12*
%TO.C,R1*%
X112825000Y-62875000D02*
X113175000Y-62875000D01*
X112825000Y-64125000D02*
X113175000Y-64125000D01*
%TO.C,R_BLUE1*%
X93110000Y-38910000D02*
X93110000Y-38560000D01*
X94360000Y-38910000D02*
X94360000Y-38560000D01*
D13*
%TO.C,J5*%
X117630000Y-88800000D02*
X120370000Y-88800000D01*
X117630000Y-96620000D02*
X117630000Y-88800000D01*
X120370000Y-88800000D02*
X120370000Y-96620000D01*
X120370000Y-96620000D02*
X117630000Y-96620000D01*
X120000000Y-96110000D02*
G75*
G02*
X119800000Y-96110000I-100000J0D01*
G01*
X119800000Y-96110000D02*
G75*
G02*
X120000000Y-96110000I100000J0D01*
G01*
D14*
%TO.C,J1*%
X26822400Y-27838400D02*
X26822400Y-29260800D01*
X26822400Y-31191200D02*
X26822400Y-33121600D01*
X26822400Y-33121600D02*
X29337000Y-33121600D01*
X40741600Y-35204400D02*
X41376600Y-34188400D01*
X41783000Y-33121600D02*
X44297600Y-33121600D01*
X42138600Y-35204400D02*
X40741600Y-35204400D01*
X42138600Y-35204400D02*
X41376600Y-34188400D01*
X44297600Y-27838400D02*
X26822400Y-27838400D01*
X44297600Y-29260800D02*
X44297600Y-27838400D01*
X44297600Y-33121600D02*
X44297600Y-31191200D01*
%TO.C,C1*%
X62661800Y-112826800D02*
X62661800Y-116977160D01*
X62661800Y-119242840D02*
X62661800Y-123393200D01*
X62661800Y-123393200D02*
X73228200Y-123393200D01*
X73228200Y-112826800D02*
X62661800Y-112826800D01*
X73228200Y-116977160D02*
X73228200Y-112826800D01*
X73228200Y-123393200D02*
X73228200Y-119242840D01*
X75145900Y-118110000D02*
G75*
G02*
X74993500Y-118110000I-76200J0D01*
G01*
X74993500Y-118110000D02*
G75*
G02*
X75145900Y-118110000I76200J0D01*
G01*
D12*
%TO.C,U1*%
X52070000Y-47990000D02*
X52070000Y-94250000D01*
X57040000Y-95250000D02*
X53070000Y-95250000D01*
X57040000Y-101990000D02*
X57040000Y-95250000D01*
X61990000Y-45990000D02*
X61990000Y-46990000D01*
X61990000Y-46990000D02*
X53070000Y-46990000D01*
X70090000Y-45990000D02*
X61990000Y-45990000D01*
X70090000Y-46990000D02*
X70090000Y-45990000D01*
X75040000Y-95250000D02*
X75040000Y-101990000D01*
X75040000Y-101990000D02*
X57040000Y-101990000D01*
X79010000Y-46990000D02*
X70090000Y-46990000D01*
X79010000Y-95250000D02*
X75040000Y-95250000D01*
X80010000Y-47990000D02*
X80010000Y-94250000D01*
X52070000Y-47990000D02*
G75*
G02*
X53070000Y-46990000I1000000J0D01*
G01*
X53070000Y-95250000D02*
G75*
G02*
X52070000Y-94250000I0J1000000D01*
G01*
X79010000Y-46990000D02*
G75*
G02*
X80010000Y-47990000I1J-999999D01*
G01*
X80010000Y-94250000D02*
G75*
G02*
X79010000Y-95250000I-999999J-1D01*
G01*
D13*
X80640000Y-93955000D02*
G75*
G02*
X80440000Y-93955000I-100000J0D01*
G01*
X80440000Y-93955000D02*
G75*
G02*
X80640000Y-93955000I100000J0D01*
G01*
D12*
%TO.C,R_RED1*%
X87250000Y-38910000D02*
X87250000Y-38560000D01*
X88500000Y-38910000D02*
X88500000Y-38560000D01*
%TO.C,J2*%
X115600000Y-58510000D02*
X121350000Y-58510000D01*
X115600000Y-68410000D02*
X115600000Y-58510000D01*
X121350000Y-58510000D02*
X121350000Y-68410000D01*
X121350000Y-68410000D02*
X115600000Y-68410000D01*
D13*
X119100000Y-57710000D02*
G75*
G02*
X118900000Y-57710000I-100000J0D01*
G01*
X118900000Y-57710000D02*
G75*
G02*
X119100000Y-57710000I100000J0D01*
G01*
%TO.C,J3*%
X117880000Y-74830000D02*
X120620000Y-74830000D01*
X117880000Y-82650000D02*
X117880000Y-74830000D01*
X120620000Y-74830000D02*
X120620000Y-82650000D01*
X120620000Y-82650000D02*
X117880000Y-82650000D01*
X120250000Y-82140000D02*
G75*
G02*
X120050000Y-82140000I-100000J0D01*
G01*
X120050000Y-82140000D02*
G75*
G02*
X120250000Y-82140000I100000J0D01*
G01*
D12*
%TO.C,R2*%
X107325000Y-37005000D02*
X107325000Y-36655000D01*
X108575000Y-37005000D02*
X108575000Y-36655000D01*
%TO.C,J4*%
X85815000Y-29400000D02*
X98215000Y-29400000D01*
X85815000Y-35150000D02*
X85815000Y-29400000D01*
X98215000Y-29400000D02*
X98215000Y-35150000D01*
X98215000Y-35150000D02*
X85815000Y-35150000D01*
D13*
X85115000Y-31750000D02*
G75*
G02*
X84915000Y-31750000I-100000J0D01*
G01*
X84915000Y-31750000D02*
G75*
G02*
X85115000Y-31750000I100000J0D01*
G01*
D12*
%TO.C,R_GREEN1*%
X90180000Y-38910000D02*
X90180000Y-38560000D01*
X91430000Y-38910000D02*
X91430000Y-38560000D01*
%TO.C,P1*%
X46990000Y-115280000D02*
X57150000Y-115280000D01*
X46990000Y-122480000D02*
X46990000Y-115280000D01*
X46990000Y-122480000D02*
X57150000Y-122480000D01*
X46990000Y-123480000D02*
X46990000Y-122480000D01*
X57150000Y-115280000D02*
X57150000Y-122480000D01*
X57150000Y-122480000D02*
X57150000Y-123480000D01*
X57150000Y-123480000D02*
X46990000Y-123480000D01*
%TO.C,J6*%
X105620000Y-28765000D02*
X118020000Y-28765000D01*
X105620000Y-34515000D02*
X105620000Y-28765000D01*
X118020000Y-28765000D02*
X118020000Y-34515000D01*
X118020000Y-34515000D02*
X105620000Y-34515000D01*
D13*
X104920000Y-31115000D02*
G75*
G02*
X104720000Y-31115000I-100000J0D01*
G01*
X104720000Y-31115000D02*
G75*
G02*
X104920000Y-31115000I100000J0D01*
G01*
%TO.C,U2*%
D11*
X79475000Y-101954000D02*
X122655000Y-101954000D01*
X122655000Y-123036000D01*
X79475000Y-123036000D01*
X79475000Y-101954000D01*
%TD*%
M02*
