%TF.GenerationSoftware,KiCad,Pcbnew,9.0.2*%
%TF.CreationDate,2025-07-26T16:17:08-04:00*%
%TF.ProjectId,Automated Coin Machine,4175746f-6d61-4746-9564-20436f696e20,rev?*%
%TF.SameCoordinates,Original*%
%TF.FileFunction,Copper,L1,Top*%
%TF.FilePolarity,Positive*%
%FSLAX46Y46*%
G04 Gerber Fmt 4.6, Leading zero omitted, Abs format (unit mm)*
G04 Created by KiCad (PCBNEW 9.0.2) date 2025-07-26 16:17:08*
%MOMM*%
%LPD*%
G01*
G04 APERTURE LIST*
G04 Aperture macros list*
%AMRoundRect*
0 Rectangle with rounded corners*
0 $1 Rounding radius*
0 $2 $3 $4 $5 $6 $7 $8 $9 X,Y pos of 4 corners*
0 Add a 4 corners polygon primitive as box body*
4,1,4,$2,$3,$4,$5,$6,$7,$8,$9,$2,$3,0*
0 Add four circle primitives for the rounded corners*
1,1,$1+$1,$2,$3*
1,1,$1+$1,$4,$5*
1,1,$1+$1,$6,$7*
1,1,$1+$1,$8,$9*
0 Add four rect primitives between the rounded corners*
20,1,$1+$1,$2,$3,$4,$5,0*
20,1,$1+$1,$4,$5,$6,$7,0*
20,1,$1+$1,$6,$7,$8,$9,0*
20,1,$1+$1,$8,$9,$2,$3,0*%
G04 Aperture macros list end*
%ADD10C,0.158750*%
%TA.AperFunction,NonConductor*%
%ADD11C,0.158750*%
%TD*%
%TA.AperFunction,SMDPad,CuDef*%
%ADD12RoundRect,0.115000X-0.345000X-0.575000X0.345000X-0.575000X0.345000X0.575000X-0.345000X0.575000X0*%
%TD*%
%TA.AperFunction,SMDPad,CuDef*%
%ADD13RoundRect,0.115000X0.575000X-0.345000X0.575000X0.345000X-0.575000X0.345000X-0.575000X-0.345000X0*%
%TD*%
%TA.AperFunction,ComponentPad*%
%ADD14C,1.650000*%
%TD*%
%TA.AperFunction,SMDPad,CuDef*%
%ADD15R,0.300000X1.000000*%
%TD*%
%TA.AperFunction,SMDPad,CuDef*%
%ADD16R,2.000000X1.300000*%
%TD*%
%TA.AperFunction,SMDPad,CuDef*%
%ADD17R,4.114800X1.600200*%
%TD*%
%TA.AperFunction,ComponentPad*%
%ADD18R,1.408000X1.408000*%
%TD*%
%TA.AperFunction,ComponentPad*%
%ADD19C,1.408000*%
%TD*%
%TA.AperFunction,ComponentPad*%
%ADD20R,1.508000X1.508000*%
%TD*%
%TA.AperFunction,ComponentPad*%
%ADD21C,1.508000*%
%TD*%
%TA.AperFunction,ComponentPad*%
%ADD22R,1.650000X1.650000*%
%TD*%
%TA.AperFunction,ComponentPad*%
%ADD23C,2.000000*%
%TD*%
%TA.AperFunction,ViaPad*%
%ADD24C,0.600000*%
%TD*%
%TA.AperFunction,Conductor*%
%ADD25C,0.250000*%
%TD*%
G04 APERTURE END LIST*
D10*
D11*
X22867142Y-122974509D02*
X22867142Y-123579271D01*
X22443809Y-122309271D02*
X22867142Y-122974509D01*
X22867142Y-122974509D02*
X23290476Y-122309271D01*
X23895237Y-123579271D02*
X23774285Y-123518795D01*
X23774285Y-123518795D02*
X23713808Y-123458318D01*
X23713808Y-123458318D02*
X23653332Y-123337366D01*
X23653332Y-123337366D02*
X23653332Y-122974509D01*
X23653332Y-122974509D02*
X23713808Y-122853556D01*
X23713808Y-122853556D02*
X23774285Y-122793080D01*
X23774285Y-122793080D02*
X23895237Y-122732604D01*
X23895237Y-122732604D02*
X24076666Y-122732604D01*
X24076666Y-122732604D02*
X24197618Y-122793080D01*
X24197618Y-122793080D02*
X24258094Y-122853556D01*
X24258094Y-122853556D02*
X24318570Y-122974509D01*
X24318570Y-122974509D02*
X24318570Y-123337366D01*
X24318570Y-123337366D02*
X24258094Y-123458318D01*
X24258094Y-123458318D02*
X24197618Y-123518795D01*
X24197618Y-123518795D02*
X24076666Y-123579271D01*
X24076666Y-123579271D02*
X23895237Y-123579271D01*
X25407142Y-122732604D02*
X25407142Y-123579271D01*
X24862856Y-122732604D02*
X24862856Y-123397842D01*
X24862856Y-123397842D02*
X24923333Y-123518795D01*
X24923333Y-123518795D02*
X25044285Y-123579271D01*
X25044285Y-123579271D02*
X25225714Y-123579271D01*
X25225714Y-123579271D02*
X25346666Y-123518795D01*
X25346666Y-123518795D02*
X25407142Y-123458318D01*
D12*
%TO.P,R1,1*%
%TO.N,IO14*%
X112045000Y-63500000D03*
%TO.P,R1,2*%
%TO.N,Net-(J2-Pad2)*%
X113955000Y-63500000D03*
%TD*%
D13*
%TO.P,R_BLUE1,1*%
%TO.N,R_BLUE*%
X93735000Y-39690000D03*
%TO.P,R_BLUE1,2*%
%TO.N,Net-(J4-Pad3)*%
X93735000Y-37780000D03*
%TD*%
D14*
%TO.P,J5,1,Pin_1*%
%TO.N,ESP32_GPIO_12*%
X119000000Y-95250000D03*
%TO.P,J5,2,Pin_2*%
%TO.N,+5V*%
X119000000Y-92710000D03*
%TO.P,J5,3,Pin_3*%
%TO.N,GND*%
X119000000Y-90170000D03*
%TD*%
D15*
%TO.P,J1,1*%
%TO.N,unconnected-(J1-Pad1)*%
X41310000Y-32930000D03*
%TO.P,J1,2*%
%TO.N,GND*%
X40810000Y-32930000D03*
%TO.P,J1,3*%
%TO.N,GPIO18*%
X40310000Y-32930000D03*
%TO.P,J1,4*%
%TO.N,+3V3*%
X39810000Y-32930000D03*
%TO.P,J1,5*%
%TO.N,GPIO19*%
X39310000Y-32930000D03*
%TO.P,J1,6*%
%TO.N,unconnected-(J1-Pad6)*%
X38810000Y-32930000D03*
%TO.P,J1,7*%
%TO.N,GPIO21*%
X38310000Y-32930000D03*
%TO.P,J1,8*%
%TO.N,GPIO32*%
X37810000Y-32930000D03*
%TO.P,J1,9*%
%TO.N,GPIO23*%
X37310000Y-32930000D03*
%TO.P,J1,10*%
%TO.N,+3V3*%
X36810000Y-32930000D03*
%TO.P,J1,11*%
X36310000Y-32930000D03*
%TO.P,J1,12*%
%TO.N,unconnected-(J1-Pad12)*%
X35810003Y-32930000D03*
%TO.P,J1,13*%
%TO.N,GPIO0*%
X35310000Y-32930000D03*
%TO.P,J1,14*%
%TO.N,unconnected-(J1-Pad14)*%
X34810000Y-32930000D03*
%TO.P,J1,15*%
%TO.N,GND*%
X34310000Y-32930000D03*
%TO.P,J1,16*%
%TO.N,GPIO33*%
X33810000Y-32930000D03*
%TO.P,J1,17*%
%TO.N,GPIO22*%
X33310000Y-32930000D03*
%TO.P,J1,18*%
%TO.N,GPIO35*%
X32810000Y-32930000D03*
%TO.P,J1,19*%
%TO.N,GPIO16*%
X32310000Y-32930000D03*
%TO.P,J1,20*%
%TO.N,GPIO2*%
X31810000Y-32930000D03*
%TO.P,J1,21*%
%TO.N,GPIO15*%
X31310000Y-32930000D03*
%TO.P,J1,22*%
%TO.N,GPIO4*%
X30810000Y-32930000D03*
%TO.P,J1,23*%
%TO.N,GPIO17*%
X30310000Y-32930000D03*
%TO.P,J1,24*%
%TO.N,GPIO5*%
X29810000Y-32930000D03*
D16*
%TO.P,J1,P1*%
%TO.N,unconnected-(J1-PadP1)*%
X43609990Y-30230000D03*
%TO.P,J1,P2*%
%TO.N,unconnected-(J1-PadP2)*%
X27510010Y-30230000D03*
%TD*%
D17*
%TO.P,C1,1*%
%TO.N,+5V*%
X72250300Y-118110000D03*
%TO.P,C1,2*%
%TO.N,GND*%
X63639700Y-118110000D03*
%TD*%
D18*
%TO.P,U1,J2_1,3V3*%
%TO.N,+3V3*%
X78740000Y-93955000D03*
D19*
%TO.P,U1,J2_2,EN*%
X78740000Y-91415000D03*
%TO.P,U1,J2_3,SENSOR_VP*%
%TO.N,unconnected-(U1-SENSOR_VP-PadJ2_3)*%
X78740000Y-88875000D03*
%TO.P,U1,J2_4,SENSOR_VN*%
%TO.N,unconnected-(U1-SENSOR_VN-PadJ2_4)*%
X78740000Y-86335000D03*
%TO.P,U1,J2_5,IO34*%
%TO.N,IO34*%
X78740000Y-83795000D03*
%TO.P,U1,J2_6,IO35*%
%TO.N,GPIO35*%
X78740000Y-81255000D03*
%TO.P,U1,J2_7,IO32*%
%TO.N,GPIO32*%
X78740000Y-78715000D03*
%TO.P,U1,J2_8,IO33*%
%TO.N,GPIO33*%
X78740000Y-76175000D03*
%TO.P,U1,J2_9,IO25*%
%TO.N,R_RED*%
X78740000Y-73635000D03*
%TO.P,U1,J2_10,IO26*%
%TO.N,R_GREEN*%
X78740000Y-71095000D03*
%TO.P,U1,J2_11,IO27*%
%TO.N,R_BLUE*%
X78740000Y-68555000D03*
%TO.P,U1,J2_12,IO14*%
%TO.N,IO14*%
X78740000Y-66015000D03*
%TO.P,U1,J2_13,IO12*%
%TO.N,ESP32_GPIO_12*%
X78740000Y-63475000D03*
%TO.P,U1,J2_14,GND_J2_14*%
%TO.N,GND*%
X78740000Y-60935000D03*
%TO.P,U1,J2_15,IO13*%
%TO.N,ESP32_GPIO_13*%
X78740000Y-58395000D03*
%TO.P,U1,J2_16,SD2*%
%TO.N,unconnected-(U1-SD2-PadJ2_16)*%
X78740000Y-55855000D03*
%TO.P,U1,J2_17,SD3*%
%TO.N,unconnected-(U1-SD3-PadJ2_17)*%
X78740000Y-53315000D03*
%TO.P,U1,J2_18,CMD*%
%TO.N,unconnected-(U1-CMD-PadJ2_18)*%
X78740000Y-50775000D03*
%TO.P,U1,J2_19,EXT_5V*%
%TO.N,+5V*%
X78740000Y-48235000D03*
%TO.P,U1,J3_1,GND_J3_1*%
%TO.N,GND*%
X53340000Y-93955000D03*
%TO.P,U1,J3_2,IO23*%
%TO.N,GPIO23*%
X53340000Y-91415000D03*
%TO.P,U1,J3_3,IO22*%
%TO.N,GPIO22*%
X53340000Y-88875000D03*
%TO.P,U1,J3_4,TXD0*%
%TO.N,unconnected-(U1-TXD0-PadJ3_4)*%
X53340000Y-86335000D03*
%TO.P,U1,J3_5,RXD0*%
%TO.N,unconnected-(U1-RXD0-PadJ3_5)*%
X53340000Y-83795000D03*
%TO.P,U1,J3_6,IO21*%
%TO.N,GPIO21*%
X53340000Y-81255000D03*
%TO.P,U1,J3_7,GND_J3_7*%
%TO.N,GND*%
X53340000Y-78715000D03*
%TO.P,U1,J3_8,IO19*%
%TO.N,GPIO19*%
X53340000Y-76175000D03*
%TO.P,U1,J3_9,IO18*%
%TO.N,GPIO18*%
X53340000Y-73635000D03*
%TO.P,U1,J3_10,IO5*%
%TO.N,GPIO5*%
X53340000Y-71095000D03*
%TO.P,U1,J3_11,IO17*%
%TO.N,GPIO17*%
X53340000Y-68555000D03*
%TO.P,U1,J3_12,IO16*%
%TO.N,GPIO16*%
X53340000Y-66015000D03*
%TO.P,U1,J3_13,IO4*%
%TO.N,GPIO4*%
X53340000Y-63475000D03*
%TO.P,U1,J3_14,IO0*%
%TO.N,GPIO0*%
X53340000Y-60935000D03*
%TO.P,U1,J3_15,IO2*%
%TO.N,GPIO2*%
X53340000Y-58395000D03*
%TO.P,U1,J3_16,IO15*%
%TO.N,GPIO15*%
X53340000Y-55855000D03*
%TO.P,U1,J3_17,SD1*%
%TO.N,unconnected-(U1-SD1-PadJ3_17)*%
X53340000Y-53315000D03*
%TO.P,U1,J3_18,SD0*%
%TO.N,unconnected-(U1-SD0-PadJ3_18)*%
X53340000Y-50775000D03*
%TO.P,U1,J3_19,CLK*%
%TO.N,unconnected-(U1-CLK-PadJ3_19)*%
X53340000Y-48235000D03*
%TD*%
D13*
%TO.P,R_RED1,1*%
%TO.N,R_RED*%
X87875000Y-39690000D03*
%TO.P,R_RED1,2*%
%TO.N,Net-(J4-Pad1)*%
X87875000Y-37780000D03*
%TD*%
D20*
%TO.P,J2,1,1*%
%TO.N,+5V*%
X119000000Y-60960000D03*
D21*
%TO.P,J2,2,2*%
%TO.N,Net-(J2-Pad2)*%
X119000000Y-63460000D03*
%TO.P,J2,3,3*%
%TO.N,GND*%
X119000000Y-65960000D03*
%TD*%
D14*
%TO.P,J3,1,Pin_1*%
%TO.N,ESP32_GPIO_13*%
X119250000Y-81280000D03*
%TO.P,J3,2,Pin_2*%
%TO.N,+5V*%
X119250000Y-78740000D03*
%TO.P,J3,3,Pin_3*%
%TO.N,GND*%
X119250000Y-76200000D03*
%TD*%
D13*
%TO.P,R2,1*%
%TO.N,+5V*%
X107950000Y-37785000D03*
%TO.P,R2,2*%
%TO.N,Net-(J6-Pad1)*%
X107950000Y-35875000D03*
%TD*%
D20*
%TO.P,J4,1,1*%
%TO.N,Net-(J4-Pad1)*%
X88265000Y-31750000D03*
D21*
%TO.P,J4,2,2*%
%TO.N,Net-(J4-Pad2)*%
X90765000Y-31750000D03*
%TO.P,J4,3,3*%
%TO.N,Net-(J4-Pad3)*%
X93265000Y-31750000D03*
%TO.P,J4,4,4*%
%TO.N,GND*%
X95765000Y-31750000D03*
%TD*%
D13*
%TO.P,R_GREEN1,1*%
%TO.N,R_GREEN*%
X90805000Y-39690000D03*
%TO.P,R_GREEN1,2*%
%TO.N,Net-(J4-Pad2)*%
X90805000Y-37780000D03*
%TD*%
D22*
%TO.P,P1,1,1*%
%TO.N,VIN*%
X49530000Y-119380000D03*
D14*
%TO.P,P1,2,2*%
%TO.N,GND*%
X54610000Y-119380000D03*
%TD*%
D20*
%TO.P,J6,1,1*%
%TO.N,Net-(J6-Pad1)*%
X108070000Y-31115000D03*
D21*
%TO.P,J6,2,2*%
%TO.N,GND*%
X110570000Y-31115000D03*
%TO.P,J6,3,3*%
%TO.N,IO34*%
X113070000Y-31115000D03*
%TO.P,J6,4,4*%
%TO.N,GND*%
X115570000Y-31115000D03*
%TD*%
D23*
%TO.P,U2,1,IN+*%
%TO.N,VIN*%
X81316500Y-103922500D03*
%TO.P,U2,2,IN-__*%
%TO.N,GND*%
X120813500Y-103922500D03*
%TO.P,U2,3,OUT+*%
%TO.N,+5V*%
X81316500Y-121067500D03*
%TO.P,U2,4,OUT-*%
%TO.N,GND*%
X120813500Y-121067500D03*
%TD*%
D24*
%TO.N,+5V*%
X122125000Y-79000000D03*
X122500000Y-93750000D03*
X120875000Y-93184313D03*
X120750000Y-79000000D03*
X120000000Y-38500000D03*
X122500000Y-40000000D03*
X120500000Y-61250000D03*
X122125000Y-61250000D03*
%TO.N,GND*%
X56739153Y-78510847D03*
X106000000Y-30000000D03*
X42000000Y-34250000D03*
X78115000Y-31250000D03*
X104000000Y-30000000D03*
X37000000Y-34750000D03*
X79365000Y-31250000D03*
X80250000Y-61390000D03*
X121500000Y-96500000D03*
X121500000Y-93750000D03*
%TO.N,GPIO21*%
X32000000Y-27250000D03*
X38125000Y-27375000D03*
%TO.N,GPIO16*%
X28550893Y-32375000D03*
X28162010Y-36250000D03*
%TO.N,+3V3*%
X54521973Y-51004262D03*
X54625000Y-57000000D03*
X40750000Y-36250000D03*
X36685000Y-32000000D03*
%TO.N,GPIO0*%
X35327816Y-32056297D03*
X30000000Y-36000000D03*
%TO.N,GPIO15*%
X31000000Y-37750000D03*
X33000000Y-38000000D03*
%TO.N,GPIO18*%
X40500000Y-30000000D03*
X32685000Y-29500000D03*
%TO.N,GPIO19*%
X39250000Y-28000000D03*
X32685000Y-28000000D03*
%TO.N,ESP32_GPIO_13*%
X96750000Y-67000000D03*
X83750000Y-61500000D03*
%TO.N,ESP32_GPIO_12*%
X80500000Y-64000000D03*
X87750000Y-76250000D03*
%TO.N,IO34*%
X110750000Y-37110000D03*
X110250000Y-38750000D03*
%TO.N,VIN*%
X77000000Y-117000000D03*
X77000000Y-119000000D03*
%TO.N,IO14*%
X77250000Y-67000000D03*
X98250000Y-66325000D03*
%TD*%
D25*
%TO.N,+5V*%
X122125000Y-61250000D02*
X122500000Y-61250000D01*
X122500000Y-96210000D02*
X122500000Y-93750000D01*
X105000000Y-28026000D02*
X105000000Y-34835000D01*
X122500000Y-123000000D02*
X122500000Y-96210000D01*
X116500000Y-37785000D02*
X107950000Y-37785000D01*
X122500000Y-96210000D02*
X119000000Y-92710000D01*
X122500000Y-61250000D02*
X122500000Y-40000000D01*
X78740000Y-48235000D02*
X78740000Y-29260000D01*
X122500000Y-93750000D02*
X122500000Y-79000000D01*
X119000000Y-60960000D02*
X120210000Y-60960000D01*
X121031000Y-124469000D02*
X122500000Y-123000000D01*
X122500000Y-79000000D02*
X122500000Y-61250000D01*
X119250000Y-78740000D02*
X120490000Y-78740000D01*
X81316500Y-121067500D02*
X84718000Y-124469000D01*
X120400687Y-92710000D02*
X120875000Y-93184313D01*
X120490000Y-78740000D02*
X120750000Y-79000000D01*
X78740000Y-29260000D02*
X81974000Y-26026000D01*
X117215000Y-38500000D02*
X116500000Y-37785000D01*
X72250300Y-118110000D02*
X78359000Y-118110000D01*
X78359000Y-118110000D02*
X81316500Y-121067500D01*
X119000000Y-92710000D02*
X120400687Y-92710000D01*
X122125000Y-79000000D02*
X122500000Y-79000000D01*
X105000000Y-34835000D02*
X107950000Y-37785000D01*
X81974000Y-26026000D02*
X103000000Y-26026000D01*
X120210000Y-60960000D02*
X120500000Y-61250000D01*
X103000000Y-26026000D02*
X105000000Y-28026000D01*
X84718000Y-124469000D02*
X121031000Y-124469000D01*
X120000000Y-38500000D02*
X117215000Y-38500000D01*
%TO.N,GND*%
X120813500Y-121067500D02*
X120813500Y-103922500D01*
X40810000Y-32190000D02*
X41750000Y-31250000D01*
X95765000Y-31750000D02*
X97000000Y-30515000D01*
X97000000Y-30515000D02*
X97000000Y-30000000D01*
X121500000Y-37045000D02*
X115570000Y-31115000D01*
X80000000Y-31500000D02*
X80000000Y-29000000D01*
X121500000Y-92670000D02*
X121500000Y-89250000D01*
X110570000Y-31115000D02*
X109440000Y-29985000D01*
X119000000Y-65960000D02*
X120790000Y-65960000D01*
X34310000Y-33594190D02*
X35357905Y-34642095D01*
X106015000Y-29985000D02*
X106000000Y-30000000D01*
X119250000Y-76200000D02*
X120450000Y-75000000D01*
X79750000Y-31250000D02*
X80000000Y-31500000D01*
X54625000Y-80000000D02*
X53340000Y-78715000D01*
X41750000Y-31250000D02*
X78115000Y-31250000D01*
X80000000Y-29000000D02*
X82000000Y-27000000D01*
X53340000Y-93955000D02*
X53340000Y-118110000D01*
X109440000Y-29985000D02*
X106015000Y-29985000D01*
X121500000Y-65250000D02*
X121500000Y-37045000D01*
X79365000Y-31250000D02*
X79750000Y-31250000D01*
X121500000Y-92670000D02*
X119000000Y-90170000D01*
X78740000Y-60935000D02*
X80000000Y-59675000D01*
X82000000Y-27000000D02*
X94000000Y-27000000D01*
X80000000Y-59675000D02*
X80000000Y-31500000D01*
X111700000Y-29985000D02*
X114440000Y-29985000D01*
X97000000Y-30000000D02*
X104000000Y-30000000D01*
X42000000Y-34250000D02*
X42000000Y-32318000D01*
X34310000Y-32930000D02*
X34310000Y-33594190D01*
X53340000Y-93955000D02*
X55000000Y-92295000D01*
X121500000Y-89250000D02*
X121500000Y-75000000D01*
X55000000Y-80000000D02*
X56489153Y-78510847D01*
X121500000Y-93750000D02*
X121500000Y-92670000D01*
X94000000Y-29985000D02*
X95765000Y-31750000D01*
X55000000Y-80000000D02*
X54625000Y-80000000D01*
X42000000Y-32318000D02*
X41786000Y-32104000D01*
X79195000Y-61390000D02*
X78740000Y-60935000D01*
X119920000Y-89250000D02*
X121500000Y-89250000D01*
X114440000Y-29985000D02*
X115570000Y-31115000D01*
X41786000Y-32104000D02*
X40834000Y-32104000D01*
X55000000Y-92295000D02*
X55000000Y-80000000D01*
X110570000Y-31115000D02*
X111700000Y-29985000D01*
X40810000Y-32930000D02*
X40810000Y-32190000D01*
X120813500Y-103922500D02*
X120813500Y-97186500D01*
X119000000Y-90170000D02*
X119920000Y-89250000D01*
X40834000Y-32104000D02*
X40810000Y-32128000D01*
X36892095Y-34642095D02*
X37000000Y-34750000D01*
X120450000Y-75000000D02*
X121500000Y-75000000D01*
X94000000Y-27000000D02*
X94000000Y-29985000D01*
X54610000Y-119380000D02*
X55880000Y-118110000D01*
X35357905Y-34642095D02*
X36892095Y-34642095D01*
X55880000Y-118110000D02*
X63639700Y-118110000D01*
X56489153Y-78510847D02*
X56739153Y-78510847D01*
X120790000Y-65960000D02*
X121500000Y-65250000D01*
X80250000Y-61390000D02*
X79195000Y-61390000D01*
X40810000Y-32128000D02*
X40810000Y-32930000D01*
X120813500Y-97186500D02*
X121500000Y-96500000D01*
X121500000Y-75000000D02*
X121500000Y-65250000D01*
X53340000Y-118110000D02*
X54610000Y-119380000D01*
%TO.N,GPIO21*%
X28255000Y-81255000D02*
X28250000Y-81250000D01*
X25701000Y-27750000D02*
X26201000Y-27250000D01*
X25701000Y-73951000D02*
X25701000Y-27750000D01*
X26500000Y-27250000D02*
X32000000Y-27250000D01*
X28250000Y-81250000D02*
X26000000Y-79000000D01*
X38310000Y-27560000D02*
X38310000Y-32930000D01*
X38125000Y-27375000D02*
X38310000Y-27560000D01*
X26000000Y-79000000D02*
X26000000Y-74250000D01*
X26201000Y-27250000D02*
X26500000Y-27250000D01*
X26000000Y-74250000D02*
X25701000Y-73951000D01*
X53340000Y-81255000D02*
X28255000Y-81255000D01*
%TO.N,GPIO16*%
X28162010Y-62662010D02*
X28162010Y-36250000D01*
X53340000Y-66015000D02*
X51355000Y-68000000D01*
X28550893Y-32199107D02*
X29500000Y-31250000D01*
X32310000Y-31310000D02*
X32310000Y-32930000D01*
X51355000Y-68000000D02*
X33500000Y-68000000D01*
X33500000Y-68000000D02*
X28162010Y-62662010D01*
X28550893Y-32375000D02*
X28550893Y-32199107D01*
X32250000Y-31250000D02*
X32310000Y-31310000D01*
X29500000Y-31250000D02*
X32250000Y-31250000D01*
%TO.N,+3V3*%
X36810000Y-32125000D02*
X36685000Y-32000000D01*
X39834000Y-33756000D02*
X39810000Y-33732000D01*
X54521973Y-47716333D02*
X42777820Y-35972180D01*
X42500000Y-36250000D02*
X42777820Y-35972180D01*
X39810000Y-33732000D02*
X39810000Y-32930000D01*
X54521973Y-51004262D02*
X54521973Y-47716333D01*
X36310000Y-32930000D02*
X36810000Y-32930000D01*
X70527190Y-91415000D02*
X54625000Y-75512810D01*
X78740000Y-91415000D02*
X70527190Y-91415000D01*
X54625000Y-75512810D02*
X54625000Y-57000000D01*
X40750000Y-36250000D02*
X42500000Y-36250000D01*
X36810000Y-32930000D02*
X36810000Y-32125000D01*
X42777820Y-35972180D02*
X40561640Y-33756000D01*
X78740000Y-91415000D02*
X78740000Y-93955000D01*
X40561640Y-33756000D02*
X39834000Y-33756000D01*
%TO.N,GPIO33*%
X54850000Y-52285000D02*
X78740000Y-76175000D01*
X52363000Y-52285000D02*
X54850000Y-52285000D01*
X33810000Y-32930000D02*
X33810000Y-33732000D01*
X33810000Y-33732000D02*
X52363000Y-52285000D01*
%TO.N,GPIO0*%
X53340000Y-60935000D02*
X48525000Y-65750000D01*
X30000000Y-61000000D02*
X30000000Y-60500000D01*
X35327816Y-32056297D02*
X35327816Y-32912184D01*
X34750000Y-65750000D02*
X30000000Y-61000000D01*
X35327816Y-32912184D02*
X35310000Y-32930000D01*
X48525000Y-65750000D02*
X34750000Y-65750000D01*
X30000000Y-60500000D02*
X30000000Y-36000000D01*
%TO.N,GPIO15*%
X36500000Y-63250000D02*
X36250000Y-63000000D01*
X33000000Y-59750000D02*
X33000000Y-38000000D01*
X31000000Y-37750000D02*
X31310000Y-37440000D01*
X45945000Y-63250000D02*
X45750000Y-63250000D01*
X53340000Y-55855000D02*
X45945000Y-63250000D01*
X31310000Y-37440000D02*
X31310000Y-32930000D01*
X45750000Y-63250000D02*
X36500000Y-63250000D01*
X36250000Y-63000000D02*
X33000000Y-59750000D01*
%TO.N,GPIO35*%
X78740000Y-81255000D02*
X61005000Y-81255000D01*
X55250000Y-75500000D02*
X55250000Y-56308360D01*
X55250000Y-56308360D02*
X53286640Y-54345000D01*
X53286640Y-54345000D02*
X52845000Y-54345000D01*
X52845000Y-54345000D02*
X32810000Y-34310000D01*
X32810000Y-34310000D02*
X32810000Y-32930000D01*
X61005000Y-81255000D02*
X55250000Y-75500000D01*
%TO.N,GPIO18*%
X26635010Y-32500000D02*
X27542010Y-32500000D01*
X53340000Y-73635000D02*
X29770010Y-73635000D01*
X40500000Y-30000000D02*
X40310000Y-30190000D01*
X27542010Y-32500000D02*
X30500000Y-29542010D01*
X29770010Y-73635000D02*
X26635010Y-70500000D01*
X26635010Y-70500000D02*
X26635010Y-32500000D01*
X30500000Y-29542010D02*
X30500000Y-29500000D01*
X30500000Y-29500000D02*
X32685000Y-29500000D01*
X40310000Y-30190000D02*
X40310000Y-32930000D01*
%TO.N,GPIO23*%
X24756000Y-91006000D02*
X24756000Y-27000000D01*
X24756000Y-27000000D02*
X25730000Y-26026000D01*
X26500000Y-92750000D02*
X24756000Y-91006000D01*
X25730000Y-26026000D02*
X36776000Y-26026000D01*
X53340000Y-91415000D02*
X52005000Y-92750000D01*
X52005000Y-92750000D02*
X26500000Y-92750000D01*
X36776000Y-26026000D02*
X37310000Y-26560000D01*
X37310000Y-26560000D02*
X37310000Y-32930000D01*
%TO.N,GPIO32*%
X78313360Y-74665000D02*
X55453360Y-51805000D01*
X78740000Y-78715000D02*
X79770000Y-77685000D01*
X79770000Y-75268360D02*
X79166640Y-74665000D01*
X37810000Y-36701640D02*
X37810000Y-32930000D01*
X79166640Y-74665000D02*
X78313360Y-74665000D01*
X52913360Y-51805000D02*
X37810000Y-36701640D01*
X55453360Y-51805000D02*
X52913360Y-51805000D01*
X79770000Y-77685000D02*
X79770000Y-75268360D01*
%TO.N,GPIO22*%
X51215000Y-91000000D02*
X29000000Y-91000000D01*
X26000000Y-26500000D02*
X32750000Y-26500000D01*
X26500000Y-88500000D02*
X26500000Y-84750000D01*
X33310000Y-27060000D02*
X33310000Y-32930000D01*
X53340000Y-88875000D02*
X51215000Y-91000000D01*
X32750000Y-26500000D02*
X33310000Y-27060000D01*
X25250000Y-83500000D02*
X25250000Y-27250000D01*
X29000000Y-91000000D02*
X26500000Y-88500000D01*
X26500000Y-84750000D02*
X25250000Y-83500000D01*
X25250000Y-27250000D02*
X26000000Y-26500000D01*
%TO.N,GPIO4*%
X29250000Y-35429810D02*
X29250000Y-62250000D01*
X29250000Y-62250000D02*
X34000000Y-67000000D01*
X30810000Y-33869810D02*
X29250000Y-35429810D01*
X34000000Y-67000000D02*
X49815000Y-67000000D01*
X30810000Y-32930000D02*
X30810000Y-33869810D01*
X49815000Y-67000000D02*
X53340000Y-63475000D01*
%TO.N,GPIO17*%
X27537010Y-35250000D02*
X28792000Y-35250000D01*
X31695000Y-68555000D02*
X31500000Y-68750000D01*
X31500000Y-68750000D02*
X27537010Y-64787010D01*
X27537010Y-64787010D02*
X27537010Y-35250000D01*
X30310000Y-33732000D02*
X30310000Y-32930000D01*
X53340000Y-68555000D02*
X31695000Y-68555000D01*
X28792000Y-35250000D02*
X30310000Y-33732000D01*
%TO.N,GPIO19*%
X26750000Y-28000000D02*
X28000000Y-28000000D01*
X39310000Y-28060000D02*
X39310000Y-32930000D01*
X26184010Y-28565990D02*
X26250000Y-28500000D01*
X53340000Y-76175000D02*
X30175000Y-76175000D01*
X26250000Y-28500000D02*
X26750000Y-28000000D01*
X39250000Y-28000000D02*
X39310000Y-28060000D01*
X26184010Y-72184010D02*
X26184010Y-28565990D01*
X28000000Y-28000000D02*
X32685000Y-28000000D01*
X30175000Y-76175000D02*
X27000000Y-73000000D01*
X27000000Y-73000000D02*
X26184010Y-72184010D01*
%TO.N,GPIO2*%
X53340000Y-59160000D02*
X47750000Y-64750000D01*
X35500000Y-64750000D02*
X31250000Y-60500000D01*
X31810000Y-59940000D02*
X31810000Y-32930000D01*
X53340000Y-58395000D02*
X53340000Y-59160000D01*
X47750000Y-64750000D02*
X35500000Y-64750000D01*
X31250000Y-60500000D02*
X31810000Y-59940000D01*
%TO.N,GPIO5*%
X53340000Y-71160000D02*
X53250000Y-71250000D01*
X53340000Y-71095000D02*
X53340000Y-71160000D01*
X30250000Y-71250000D02*
X27086010Y-68086010D01*
X53250000Y-71250000D02*
X30250000Y-71250000D01*
X27086010Y-33000000D02*
X29740000Y-33000000D01*
X27086010Y-68086010D02*
X27086010Y-33000000D01*
X29740000Y-33000000D02*
X29810000Y-32930000D01*
%TO.N,Net-(J2-Pad2)*%
X113995000Y-63460000D02*
X113955000Y-63460000D01*
X113955000Y-63500000D02*
X118960000Y-63500000D01*
X118960000Y-63500000D02*
X119000000Y-63460000D01*
X113955000Y-63460000D02*
X113955000Y-63500000D01*
%TO.N,ESP32_GPIO_13*%
X107640000Y-67000000D02*
X107640000Y-69670000D01*
X96750000Y-67000000D02*
X107640000Y-67000000D01*
X83235000Y-62015000D02*
X83750000Y-61500000D01*
X107640000Y-69670000D02*
X119250000Y-81280000D01*
X77660000Y-61382351D02*
X78292649Y-62015000D01*
X78292649Y-62015000D02*
X83235000Y-62015000D01*
X78740000Y-58395000D02*
X77660000Y-59475000D01*
X77660000Y-59475000D02*
X77660000Y-61382351D01*
%TO.N,Net-(J4-Pad3)*%
X93265000Y-37310000D02*
X93735000Y-37780000D01*
X93265000Y-31750000D02*
X93265000Y-37310000D01*
%TO.N,Net-(J4-Pad2)*%
X90765000Y-31750000D02*
X90765000Y-37740000D01*
X90765000Y-37740000D02*
X90805000Y-37780000D01*
%TO.N,Net-(J4-Pad1)*%
X88265000Y-37390000D02*
X87875000Y-37780000D01*
X88265000Y-31750000D02*
X88265000Y-37390000D01*
%TO.N,ESP32_GPIO_12*%
X79265000Y-64000000D02*
X78740000Y-63475000D01*
X80500000Y-64000000D02*
X79265000Y-64000000D01*
X106750000Y-95250000D02*
X119000000Y-95250000D01*
X106750000Y-95250000D02*
X87750000Y-76250000D01*
%TO.N,IO34*%
X113070000Y-34790000D02*
X110750000Y-37110000D01*
X113070000Y-31115000D02*
X113070000Y-34790000D01*
X110250000Y-38750000D02*
X110250000Y-52285000D01*
X110250000Y-52285000D02*
X78740000Y-83795000D01*
%TO.N,Net-(J6-Pad1)*%
X108070000Y-31115000D02*
X108070000Y-35755000D01*
X108070000Y-35755000D02*
X107950000Y-35875000D01*
%TO.N,VIN*%
X76000000Y-124000000D02*
X77000000Y-123000000D01*
X49530000Y-119380000D02*
X54150000Y-124000000D01*
X77000000Y-108239000D02*
X81316500Y-103922500D01*
X77000000Y-123000000D02*
X77000000Y-119000000D01*
X54150000Y-124000000D02*
X76000000Y-124000000D01*
X77000000Y-117000000D02*
X77000000Y-108239000D01*
%TO.N,IO14*%
X77755000Y-67000000D02*
X78740000Y-66015000D01*
X111790000Y-66325000D02*
X112045000Y-66070000D01*
X111790000Y-66325000D02*
X98250000Y-66325000D01*
X112045000Y-66070000D02*
X112045000Y-63500000D01*
X77250000Y-67000000D02*
X77755000Y-67000000D01*
%TO.N,R_BLUE*%
X93735000Y-39690000D02*
X93735000Y-53560000D01*
X93735000Y-53560000D02*
X78740000Y-68555000D01*
%TO.N,R_GREEN*%
X94516564Y-38854000D02*
X94801000Y-39138436D01*
X94801000Y-55034000D02*
X78740000Y-71095000D01*
X94801000Y-39138436D02*
X94801000Y-55034000D01*
X90805000Y-39690000D02*
X91641000Y-38854000D01*
X91641000Y-38854000D02*
X94516564Y-38854000D01*
%TO.N,R_RED*%
X79111480Y-67475000D02*
X78292649Y-67475000D01*
X87875000Y-39690000D02*
X87875000Y-58711480D01*
X77660000Y-72555000D02*
X78740000Y-73635000D01*
X87875000Y-58711480D02*
X79111480Y-67475000D01*
X78292649Y-67475000D02*
X77660000Y-68107649D01*
X77660000Y-68107649D02*
X77660000Y-72555000D01*
%TD*%
M02*
